<svg xmlns="http://www.w3.org/2000/svg">

    <symbol id="logo" width="36" height="36" viewBox="0 0 36 36" fill="none">
        <path d="M0.5 33H35.5V35.5H0.5V33ZM31.75 11.75C32.0815 11.75 32.3995 11.6183 32.6339 11.3839C32.8683 11.1495 33 10.8315 33 10.5V6.74999C32.9999 6.49309 32.9206 6.24248 32.773 6.03223C32.6254 5.82199 32.4166 5.66233 32.175 5.57499L18.425 0.574987C18.1504 0.475696 17.8496 0.475696 17.575 0.574987L3.825 5.57499C3.58341 5.66233 3.3746 5.82199 3.22698 6.03223C3.07937 6.24248 3.00011 6.49309 3 6.74999V10.5C3 10.8315 3.1317 11.1495 3.36612 11.3839C3.60054 11.6183 3.91848 11.75 4.25 11.75H5.5V28H3V30.5H33V28H30.5V11.75H31.75ZM5.5 7.62499L18 3.07499L30.5 7.62499V9.24999H5.5V7.62499ZM20.5 28H15.5V11.75H20.5V28ZM8 11.75H13V28H8V11.75ZM28 28H23V11.75H28V28Z" fill="#F8F8F8"/>
    </symbol>

    <symbol id="burger-menu" width="44" height="17" viewBox="0 0 44 17" fill="none">
        <rect width="44" height="3" fill="white"/>
        <rect y="7" width="44" height="3" fill="white"/>
        <rect y="14" width="44" height="3" fill="white"/>
    </symbol>

</svg>

