<svg xmlns="http://www.w3.org/2000/svg">

    <symbol id="logo" width="36" height="36" viewBox="0 0 36 36" fill="none">
        <path d="M0.5 33H35.5V35.5H0.5V33ZM31.75 11.75C32.0815 11.75 32.3995 11.6183 32.6339 11.3839C32.8683 11.1495 33 10.8315 33 10.5V6.74999C32.9999 6.49309 32.9206 6.24248 32.773 6.03223C32.6254 5.82199 32.4166 5.66233 32.175 5.57499L18.425 0.574987C18.1504 0.475696 17.8496 0.475696 17.575 0.574987L3.825 5.57499C3.58341 5.66233 3.3746 5.82199 3.22698 6.03223C3.07937 6.24248 3.00011 6.49309 3 6.74999V10.5C3 10.8315 3.1317 11.1495 3.36612 11.3839C3.60054 11.6183 3.91848 11.75 4.25 11.75H5.5V28H3V30.5H33V28H30.5V11.75H31.75ZM5.5 7.62499L18 3.07499L30.5 7.62499V9.24999H5.5V7.62499ZM20.5 28H15.5V11.75H20.5V28ZM8 11.75H13V28H8V11.75ZM28 28H23V11.75H28V28Z" fill="#F8F8F8"/>
    </symbol>

    <symbol id="burger-menu" width="44" height="17" viewBox="0 0 44 17" fill="none">
        <rect width="44" height="3" fill="white"/>
        <rect y="7" width="44" height="3" fill="white"/>
        <rect y="14" width="44" height="3" fill="white"/>
    </symbol>

    <symbol id="mastercard-logo" viewBox="0 0 88 69" fill="none">
        <path d="M32.2396 6.22971H55.7867V47.83H32.2396V6.22971Z" fill="#FF5F00"/>
        <path d="M16.3177 68.7689V64.3592C16.3177 62.6684 15.2709 61.5662 13.4767 61.5662C12.5798 61.5662 11.608 61.8602 10.9351 62.8157C10.412 62.0071 9.66459 61.5662 8.54325 61.5662C7.79546 61.5662 7.04836 61.7865 6.45006 62.5951V61.7132H4.88025V68.7689H6.45006V64.8734C6.45006 63.6243 7.12293 63.036 8.1697 63.036C9.21578 63.036 9.7395 63.6976 9.7395 64.8734V68.7689H11.3093V64.8734C11.3093 63.6243 12.0564 63.036 13.0283 63.036C14.075 63.036 14.5981 63.6976 14.5981 64.8734V68.7689H16.3177ZM39.5655 61.7132H37.0242V59.5818H35.4544V61.7132H34.0341V63.1093H35.4541V66.3436C35.4541 67.9607 36.1269 68.9159 37.9211 68.9159C38.594 68.9159 39.3411 68.6956 39.8648 68.4017L39.416 67.0785C38.9676 67.3725 38.4445 67.4461 38.0706 67.4461C37.3232 67.4461 37.0242 67.0052 37.0242 66.2699V63.1093H39.5655V61.7132ZM52.8718 61.5659C51.9748 61.5659 51.3769 62.0071 51.003 62.5951V61.7132H49.4332V68.7689H51.003V64.8001C51.003 63.6243 51.526 62.9627 52.4979 62.9627C52.7969 62.9627 53.1708 63.0363 53.4697 63.1097L53.9182 61.6399C53.6192 61.5662 53.1708 61.5662 52.8718 61.5662V61.5659ZM32.7632 62.3011C32.0155 61.7865 30.969 61.5662 29.8477 61.5662C28.0538 61.5662 26.8579 62.4481 26.8579 63.8446C26.8579 65.0208 27.7548 65.682 29.3247 65.9026L30.0721 65.9763C30.8945 66.1229 31.3429 66.3436 31.3429 66.7112C31.3429 67.2255 30.745 67.5931 29.6982 67.5931C28.6518 67.5931 27.8294 67.2255 27.306 66.8582L26.5586 68.034C27.3809 68.622 28.5023 68.9159 29.6233 68.9159C31.7165 68.9159 32.9127 67.9607 32.9127 66.6375C32.9127 65.388 31.9409 64.7265 30.4456 64.5062L29.6982 64.4325C29.0253 64.3588 28.5023 64.2122 28.5023 63.7713C28.5023 63.2567 29.0253 62.9627 29.8477 62.9627C30.745 62.9627 31.6419 63.33 32.0904 63.5506L32.7632 62.3011ZM74.4755 61.5662C73.5783 61.5662 72.9803 62.0071 72.6064 62.5951V61.7132H71.0366V68.7689H72.6064V64.8001C72.6064 63.6243 73.1298 62.9627 74.1013 62.9627C74.4006 62.9627 74.7745 63.0363 75.0735 63.1097L75.522 61.6399C75.223 61.5662 74.7745 61.5662 74.4755 61.5662ZM54.4416 65.2411C54.4416 67.3725 55.9365 68.9159 58.2541 68.9159C59.3005 68.9159 60.0479 68.6956 60.7954 68.1077L60.0479 66.8582C59.45 67.2991 58.852 67.5194 58.1792 67.5194C56.9083 67.5194 56.0114 66.6375 56.0114 65.2411C56.0114 63.9182 56.9083 63.036 58.1792 62.9627C58.852 62.9627 59.45 63.183 60.0479 63.6243L60.7954 62.3748C60.0479 61.7865 59.3005 61.5662 58.2541 61.5662C55.9365 61.5662 54.4416 63.1097 54.4416 65.2411ZM68.9438 65.2411V61.7132H67.3739V62.5951C66.8506 61.9338 66.1031 61.5662 65.1313 61.5662C63.113 61.5662 61.5432 63.1097 61.5432 65.2411C61.5432 67.3725 63.113 68.9159 65.1313 68.9159C66.1777 68.9159 66.9255 68.5486 67.3739 67.8871V68.7689H68.9438V65.2411ZM63.1876 65.2411C63.1876 63.9916 64.0099 62.9627 65.3553 62.9627C66.6262 62.9627 67.5234 63.9182 67.5234 65.2411C67.5234 66.4906 66.6262 67.5194 65.3553 67.5194C64.0099 67.4458 63.1876 66.4906 63.1876 65.2411ZM44.4248 61.5662C42.3316 61.5662 40.8364 63.036 40.8364 65.2411C40.8364 67.4461 42.3312 68.9159 44.4994 68.9159C45.5458 68.9159 46.5925 68.622 47.4149 67.9607L46.6671 66.8582C46.0692 67.2991 45.3217 67.5931 44.5743 67.5931C43.6024 67.5931 42.6306 67.1522 42.4062 65.9023H47.7139V65.3147C47.7888 63.036 46.4431 61.5662 44.4244 61.5662H44.4248ZM44.4248 62.889C45.3963 62.889 46.0695 63.4773 46.2187 64.5798H42.4811C42.6306 63.6243 43.3034 62.889 44.4248 62.889ZM83.371 65.2411V58.9202H81.8012V62.5951C81.2778 61.9338 80.5304 61.5662 79.5585 61.5662C77.5402 61.5662 75.9704 63.1097 75.9704 65.2411C75.9704 67.3725 77.5402 68.9159 79.5585 68.9159C80.6053 68.9159 81.3527 68.5486 81.8012 67.8871V68.7689H83.371V65.2411ZM77.6152 65.2411C77.6152 63.9916 78.4372 62.9627 79.7829 62.9627C81.0537 62.9627 81.9507 63.9182 81.9507 65.2411C81.9507 66.4906 81.0537 67.5194 79.7829 67.5194C78.4372 67.4458 77.6152 66.4906 77.6152 65.2411ZM25.1383 65.2411V61.7132H23.5685V62.5951C23.0451 61.9338 22.2976 61.5662 21.3258 61.5662C19.3075 61.5662 17.7377 63.1097 17.7377 65.2411C17.7377 67.3725 19.3075 68.9159 21.3258 68.9159C22.3725 68.9159 23.12 68.5486 23.5685 67.8871V68.7689H25.1383V65.2411ZM19.3075 65.2411C19.3075 63.9916 20.1299 62.9627 21.4753 62.9627C22.7461 62.9627 23.6434 63.9182 23.6434 65.2411C23.6434 66.4906 22.7461 67.5194 21.4753 67.5194C20.1299 67.4458 19.3075 66.4906 19.3075 65.2411Z" fill="white"/>
        <path d="M33.7344 27.0299C33.7344 18.5777 37.771 11.0807 43.9753 6.22963C39.4157 2.70175 33.6598 0.570358 27.3806 0.570358C12.5042 0.570358 0.469116 12.4035 0.469116 27.0299C0.469116 41.6561 12.5042 53.4895 27.3803 53.4895C33.6595 53.4895 39.4153 51.3581 43.9753 47.8299C37.771 43.0525 33.7344 35.4822 33.7344 27.0299Z" fill="#EB001B"/>
        <path d="M87.556 27.03C87.556 41.6561 75.5209 53.4896 60.6448 53.4896C54.3656 53.4896 48.6097 51.3582 44.0498 47.83C50.329 42.9792 54.291 35.4822 54.291 27.03C54.291 18.5777 50.2541 11.0807 44.0498 6.22966C48.6094 2.70178 54.3656 0.570389 60.6448 0.570389C75.5209 0.570389 87.5563 12.4772 87.5563 27.03H87.556Z" fill="#F79E1B"/>
    </symbol>

    <symbol id="mastercard-logo--opacity"  viewBox="0 0 67 41" fill="none">
        <path d="M24.2024 4.88507H42.1208V36.5412H24.2024V4.88507Z" fill="#B27BFF"/>
        <path d="M25.3399 20.7132C25.3399 14.2814 28.4115 8.5765 33.1328 4.88506C29.6631 2.20049 25.2831 0.57859 20.5049 0.57859C9.18457 0.57859 0.0263672 9.58312 0.0263672 20.7132C0.0263672 31.8431 9.18457 40.8479 20.5046 40.8479C25.2829 40.8479 29.6628 39.226 33.1328 36.5412C28.4115 32.9058 25.3399 27.145 25.3399 20.7132V20.7132Z" fill="#9E59FF"/>
        <path d="M66.296 20.7133C66.296 31.8431 57.1378 40.8479 45.8177 40.8479C41.0395 40.8479 36.6595 39.226 33.1896 36.5412C37.9678 32.85 40.9827 27.1451 40.9827 20.7133C40.9827 14.2815 37.9108 8.57652 33.1896 4.88508C36.6592 2.20051 41.0395 0.578613 45.8177 0.578613C57.1378 0.578613 66.2962 9.63919 66.2962 20.7133H66.296Z" fill="#9E59FF"/>
    </symbol>

    <symbol id="sim-card-icon" width="49" height="33" viewBox="0 0 49 33" fill="none">
        <rect x="0.0263672" y="0.990189" width="48.5982" height="31.8552" rx="5" fill="url(#paint0_radial_126_3272)"/>
        <path fill-rule="evenodd" clip-rule="evenodd" d="M24.3255 1.30715L18.9257 9.63197C18.9257 9.63197 21.0856 16.9162 18.9257 23.1598L24.3255 32.5252L29.7253 23.1598C29.7253 23.1598 27.5653 17.9568 29.7253 9.63197C29.7253 9.63197 24.3255 1.30715 24.3255 1.30715Z" stroke="#C7C7B6" stroke-width="1.3" stroke-linejoin="bevel"/>
        <path d="M0.0263672 10.0144H18.9257" stroke="#C7C7B6" stroke-width="1.3" stroke-linejoin="bevel"/>
        <path d="M29.1847 10.0144H48.624" stroke="#C7C7B6" stroke-width="1.3" stroke-linejoin="bevel"/>
        <path d="M0.0263672 22.756H18.9257" stroke="#C7C7B6" stroke-width="1.3" stroke-linejoin="bevel"/>
        <path d="M29.1847 22.756H48.624" stroke="#C7C7B6" stroke-width="1.3" stroke-linejoin="bevel"/>
        <defs>
        <radialGradient id="paint0_radial_126_3272" cx="0" cy="0" r="1" gradientUnits="userSpaceOnUse" gradientTransform="translate(27.934 12.594) rotate(141.774) scale(32.7287 32.3564)">
        <stop stop-color="white"/>
        <stop offset="1" stop-color="#DDDCDA"/>
        </radialGradient>
        </defs>
    </symbol>

    <symbol id="dot" width="6" height="6" viewBox="0 0 6 6" fill="none">
        <circle cx="3" cy="3.00002" r="3" fill="white"/>
    </symbol>

    <symbol id="logo-one" width="236" height="60" viewBox="0 0 236 60" fill="none" xmlns="http://www.w3.org/2000/svg">
        <path d="M27.2104 11.7352V4.23523H3.61035V55.7647H27.2104V48.2647C22.3759 48.2647 17.7394 46.3402 14.3209 42.915C10.9025 39.4897 8.98199 34.8441 8.98199 30C8.98199 25.1558 10.9025 20.5101 14.3209 17.0848C17.7394 13.6596 22.3759 11.7352 27.2104 11.7352Z" fill="white" fill-opacity="0.8"/>
        <path d="M27.2104 11.7352V48.2647C32.0449 48.2647 36.6814 46.3402 40.0999 42.915C43.5184 39.4897 45.4388 34.8441 45.4388 30C45.4388 25.1558 43.5184 20.5101 40.0999 17.0848C36.6814 13.6596 32.0449 11.7352 27.2104 11.7352Z" fill="white" fill-opacity="0.8"/>
        <path d="M58.6831 16.3235H63.9667V41.8235H58.6831V16.3235Z" fill="white" fill-opacity="0.8"/>
        <path d="M66.9251 33.0882C66.9251 31.2537 67.4688 29.4604 68.4872 27.9357C69.5055 26.4109 70.9526 25.2235 72.6453 24.5238C74.338 23.8242 76.1998 23.6439 77.9948 24.0057C79.7898 24.3674 81.4372 25.2551 82.7282 26.556C84.0191 27.8571 84.8957 29.5128 85.2465 31.3135C85.5972 33.1142 85.4066 34.9786 84.6986 36.6706C83.9906 38.3624 82.7974 39.8058 81.2699 40.8173C79.7424 41.829 77.9495 42.3634 76.1186 42.3529C74.9042 42.3625 73.7001 42.129 72.577 41.6659C71.4539 41.2031 70.4341 40.5201 69.5779 39.6574C68.7216 38.7944 68.046 37.7688 67.5904 36.6408C67.1349 35.5128 66.9088 34.305 66.9251 33.0882ZM80.1693 33.0882C80.1485 32.2973 79.8955 31.53 79.4418 30.8825C78.9881 30.2349 78.3541 29.7357 77.6186 29.4473C76.8833 29.1589 76.0795 29.0942 75.3077 29.2613C74.5358 29.4282 73.8303 29.8195 73.2792 30.3863C72.7281 30.9529 72.356 31.6698 72.2094 32.4473C72.0629 33.2248 72.1483 34.0283 72.4551 34.7573C72.7619 35.4863 73.2764 36.1087 73.9343 36.5462C74.5922 36.9838 75.3641 37.2173 76.1538 37.2177C76.6915 37.2282 77.2255 37.1275 77.7225 36.9217C78.2195 36.7161 78.6688 36.4099 79.0423 36.0224C79.4159 35.6349 79.7056 35.1741 79.8935 34.6694C80.0814 34.1645 80.1633 33.6263 80.1341 33.0882H80.1693Z" fill="white" fill-opacity="0.8"/>
        <path d="M106.218 24.3529V40.9588C106.218 46.8176 101.639 49.3059 97.0066 49.3059C95.3727 49.4402 93.7339 49.1149 92.2748 48.3667C90.8154 47.6185 89.5935 46.4769 88.7466 45.0706L93.2024 42.4941C93.5634 43.2236 94.1378 43.8254 94.8489 44.2195C95.5601 44.6135 96.3741 44.7812 97.1827 44.7C97.6978 44.7635 98.2206 44.7124 98.7135 44.55C99.2066 44.3875 99.6577 44.118 100.035 43.7605C100.412 43.4029 100.705 42.9665 100.894 42.4821C101.083 41.9979 101.163 41.4776 101.128 40.9588V39.3529C100.513 40.0999 99.7327 40.6929 98.8493 41.085C97.9657 41.4771 97.0032 41.6575 96.0379 41.6118C93.7024 41.6118 91.4627 40.6821 89.8112 39.0274C88.1597 37.3728 87.2319 35.1284 87.2319 32.7882C87.2319 30.4481 88.1597 28.2039 89.8112 26.5491C91.4627 24.8944 93.7024 23.9647 96.0379 23.9647C97.0032 23.919 97.9657 24.0994 98.8493 24.4915C99.7327 24.8836 100.513 25.4765 101.128 26.2235V24.4588L106.218 24.3529ZM101.128 32.7353C101.163 31.8911 100.945 31.0555 100.503 30.3362C100.06 29.6169 99.4129 29.0467 98.6441 28.6989C97.8755 28.3511 97.0208 28.2417 96.1895 28.3846C95.3584 28.5275 94.5888 28.9163 93.9799 29.5009C93.3711 30.0856 92.9507 30.8395 92.7728 31.6655C92.595 32.4916 92.6677 33.3519 92.9817 34.1361C93.2959 34.9204 93.8369 35.5925 94.5353 36.0662C95.2337 36.5398 96.0576 36.7934 96.9009 36.7941C97.4513 36.8338 98.0037 36.7574 98.5226 36.57C99.0416 36.3824 99.5157 36.0879 99.9139 35.7053C100.312 35.3229 100.626 34.8609 100.835 34.3493C101.044 33.8377 101.144 33.2878 101.128 32.7353Z" fill="white" fill-opacity="0.8"/>
        <path d="M109.194 33.0882C109.194 31.255 109.737 29.4632 110.754 27.9392C111.77 26.4152 113.215 25.2277 114.906 24.5271C116.596 23.8263 118.456 23.6439 120.251 24.0028C122.045 24.3618 123.692 25.2459 124.985 26.5433C126.277 27.8409 127.156 29.4933 127.511 31.2916C127.866 33.09 127.68 34.9533 126.978 36.6459C126.275 38.3386 125.087 39.7842 123.564 40.8002C122.042 41.8161 120.252 42.3565 118.423 42.3529C117.206 42.3648 115.999 42.133 114.873 41.6714C113.747 41.2098 112.724 40.5275 111.864 39.6646C111.005 38.8016 110.326 37.7755 109.867 36.6462C109.409 35.517 109.18 34.3073 109.194 33.0882ZM122.438 33.0882C122.417 32.2966 122.164 31.5286 121.709 30.8806C121.255 30.2328 120.62 29.7335 119.883 29.4457C119.147 29.1579 118.342 29.0942 117.57 29.2627C116.798 29.431 116.092 29.8242 115.542 30.3926C114.991 30.961 114.621 31.6796 114.476 32.4582C114.332 33.2368 114.42 34.0408 114.729 34.7695C115.038 35.4983 115.556 36.1193 116.216 36.5548C116.876 36.9902 117.65 37.2208 118.44 37.2176C118.978 37.2282 119.512 37.1275 120.009 36.9217C120.506 36.7161 120.955 36.4099 121.329 36.0224C121.702 35.6349 121.992 35.1741 122.18 34.6694C122.368 34.1645 122.45 33.6263 122.421 33.0882H122.438Z" fill="white" fill-opacity="0.8"/>
        <path d="M130.1 19.6765C130.1 19.0553 130.283 18.4479 130.628 17.9313C130.972 17.4147 131.462 17.0121 132.035 16.7744C132.608 16.5366 133.238 16.4744 133.846 16.5956C134.454 16.7168 135.013 17.016 135.451 17.4553C135.89 17.8946 136.188 18.4544 136.309 19.0636C136.43 19.6729 136.368 20.3045 136.131 20.8786C135.894 21.4525 135.492 21.943 134.976 22.2882C134.461 22.6334 133.855 22.8176 133.235 22.8176C132.406 22.8085 131.614 22.4746 131.028 21.8875C130.442 21.3003 130.109 20.5068 130.1 19.6765ZM130.61 24.3529H135.894V41.8235H130.61V24.3529Z" fill="white" fill-opacity="0.8"/>
        <path d="M158.508 33.0882C158.567 34.2501 158.396 35.4123 158.005 36.5078C157.615 37.6034 157.011 38.6107 156.231 39.4717C155.45 40.3328 154.507 41.0306 153.456 41.5251C152.405 42.0196 151.267 42.3008 150.107 42.3529C149.122 42.4186 148.136 42.2606 147.221 41.8909C146.306 41.521 145.487 40.9491 144.823 40.2176V48.847H139.54V24.3529H144.823V25.9941C145.487 25.2647 146.308 24.6954 147.223 24.3287C148.138 23.9618 149.124 23.8073 150.107 23.8764C151.262 23.9285 152.396 24.2082 153.443 24.6993C154.49 25.1904 155.431 25.8836 156.211 26.739C156.991 27.5943 157.596 28.5953 157.99 29.6848C158.384 30.7741 158.56 31.9306 158.508 33.0882ZM153.224 33.0882C153.203 32.2685 152.941 31.4733 152.471 30.8022C152.002 30.1311 151.344 29.6137 150.582 29.3153C149.82 29.0167 148.987 28.9503 148.187 29.1241C147.388 29.298 146.657 29.7046 146.087 30.2927C145.517 30.8809 145.133 31.6246 144.983 32.4307C144.833 33.2366 144.924 34.069 145.244 34.8236C145.564 35.578 146.099 36.2211 146.783 36.6721C147.466 37.1232 148.267 37.362 149.085 37.3588C149.646 37.3826 150.205 37.2875 150.726 37.0796C151.247 36.8717 151.719 36.5558 152.11 36.1526C152.5 35.7494 152.802 35.2678 152.994 34.7398C153.186 34.2116 153.264 33.6488 153.224 33.0882Z" fill="white" fill-opacity="0.8"/>
        <path d="M174.587 36.5823C174.587 40.6059 171.065 42.3176 167.331 42.3176C165.808 42.4549 164.279 42.1315 162.942 41.389C161.604 40.6466 160.52 39.5193 159.828 38.1529L164.372 35.5765C164.552 36.2061 164.942 36.7548 165.478 37.1306C166.013 37.5065 166.661 37.6867 167.313 37.6412C168.564 37.6412 169.198 37.2529 169.198 36.547C169.198 34.6235 160.621 35.647 160.621 29.5941C160.621 25.7823 163.826 23.8765 167.454 23.8765C168.833 23.8145 170.203 24.1281 171.419 24.7837C172.634 25.4393 173.65 26.4125 174.358 27.6L169.814 30C169.613 29.5447 169.285 29.1575 168.87 28.885C168.454 28.6126 167.968 28.4666 167.472 28.4647C166.556 28.4647 166.01 28.8176 166.01 29.4353C166.01 31.447 174.587 30.1235 174.587 36.5823Z" fill="white" fill-opacity="0.8"/>
        <path d="M193.731 24.3529V41.8235H188.448V40.1823C187.847 40.9088 187.085 41.4836 186.223 41.8607C185.36 42.2378 184.422 42.4064 183.481 42.3529C179.959 42.3529 176.947 39.8294 176.947 35.1176V24.3529H182.231V34.3235C182.189 34.7403 182.238 35.1612 182.375 35.5572C182.513 35.953 182.733 36.3144 183.022 36.6166C183.312 36.9185 183.664 37.1539 184.054 37.3066C184.443 37.459 184.86 37.525 185.278 37.5C187.18 37.5 188.518 36.3706 188.518 33.9706V24.3529H193.731Z" fill="white" fill-opacity="0.8"/>
        <path d="M223.672 31.0941V41.8235H218.388V31.553C218.388 29.7882 217.56 28.6941 215.887 28.6941C214.214 28.6941 213.157 29.9118 213.157 31.9765V41.8235H207.874V31.553C207.874 29.7882 207.046 28.6941 205.373 28.6941C203.7 28.6941 202.643 29.9118 202.643 31.9765V41.8235H197.359V24.353H202.643V25.9588C203.191 25.2494 203.904 24.6875 204.723 24.324C205.54 23.9605 206.437 23.8066 207.328 23.8765C208.221 23.8297 209.112 24.0168 209.911 24.419C210.711 24.8211 211.393 25.4248 211.889 26.1706C212.47 25.3913 213.238 24.7722 214.122 24.3711C215.005 23.9698 215.977 23.7997 216.944 23.8765C221.065 23.8765 223.672 26.7353 223.672 31.0941Z" fill="white" fill-opacity="0.8"/>
        <path d="M228.11 24.247C230.25 24.247 231.985 22.5088 231.985 20.3647C231.985 18.2205 230.25 16.4823 228.11 16.4823C225.97 16.4823 224.235 18.2205 224.235 20.3647C224.235 22.5088 225.97 24.247 228.11 24.247Z" fill="white" fill-opacity="0.8"/>
    </symbol>

    <symbol id="logo-two" width="100" height="51" viewBox="0 0 100 51" fill="none" xmlns="http://www.w3.org/2000/svg">
        <path d="M2.58496 29.5165H5.41788V43.4072H2.58496V29.5165Z" fill="white" fill-opacity="0.8"/>
        <path d="M7.06126 38.6479C7.05939 37.6502 7.35354 36.6743 7.90649 35.8438C8.45944 35.0133 9.24633 34.3655 10.1676 33.9824C11.0888 33.5993 12.103 33.4981 13.0818 33.6916C14.0606 33.8851 14.96 34.3646 15.6661 35.0695C16.3723 35.7743 16.8535 36.6728 17.0488 37.6512C17.2442 38.6296 17.1449 39.644 16.7635 40.566C16.3821 41.4879 15.7358 42.276 14.9063 42.8305C14.0769 43.3851 13.1016 43.681 12.1039 43.681C11.4403 43.6886 10.782 43.5637 10.1674 43.3135C9.55281 43.0634 8.99432 42.6931 8.52468 42.2243C8.05504 41.7556 7.68369 41.1978 7.4324 40.5836C7.18111 39.9695 7.05493 39.3114 7.06126 38.6479ZM14.2946 38.6479C14.2835 38.2172 14.1456 37.7993 13.8982 37.4466C13.6508 37.0938 13.3049 36.8219 12.9037 36.6647C12.5025 36.5075 12.0639 36.4722 11.6428 36.563C11.2216 36.6538 10.8366 36.8668 10.5358 37.1753C10.2351 37.4838 10.032 37.8742 9.95193 38.2976C9.87188 38.7209 9.91846 39.1585 10.0858 39.5555C10.2532 39.9525 10.5339 40.2914 10.8928 40.5297C11.2518 40.768 11.673 40.8952 12.1039 40.8953C12.3986 40.9036 12.6919 40.8507 12.9652 40.7399C13.2385 40.6291 13.4859 40.4629 13.6918 40.2517C13.8976 40.0405 14.0575 39.789 14.1612 39.513C14.265 39.2369 14.3104 38.9424 14.2946 38.6479Z" fill="white" fill-opacity="0.8"/>
        <path d="M28.5345 33.8885V42.9349C28.5345 46.1361 26.0321 47.4865 23.5014 47.4865C22.6115 47.5527 21.7205 47.3727 20.926 46.9663C20.1315 46.5599 19.4642 45.9427 18.9971 45.1824L21.4334 43.7754C21.6267 44.165 21.9326 44.4877 22.3114 44.7015C22.6902 44.9153 23.1245 45.0105 23.5581 44.9746C23.8433 45.0222 24.1357 45.0036 24.4127 44.9202C24.6897 44.8369 24.9438 44.6911 25.1555 44.494C25.3671 44.2969 25.5307 44.0538 25.6336 43.7835C25.7365 43.5132 25.7759 43.2229 25.7488 42.9349V42.0567C25.4158 42.4665 24.9908 42.792 24.5085 43.0069C24.0262 43.2218 23.5 43.3201 22.9726 43.2938C21.6903 43.2938 20.4606 42.7844 19.5538 41.8777C18.6471 40.971 18.1377 39.7412 18.1377 38.4589C18.1377 37.1766 18.6471 35.9469 19.5538 35.0402C20.4606 34.1335 21.6903 33.6241 22.9726 33.6241C23.4997 33.6 24.0251 33.6993 24.5071 33.914C24.9891 34.1288 25.4143 34.4531 25.7488 34.8611V33.9168L28.5345 33.8885ZM25.7488 38.4589C25.7677 37.9997 25.6487 37.5453 25.4073 37.1541C25.1658 36.763 24.8129 36.453 24.3939 36.2641C23.9749 36.0751 23.5089 36.0158 23.0559 36.0938C22.6029 36.1717 22.1836 36.3834 21.8519 36.7015C21.5201 37.0197 21.2911 37.4298 21.1943 37.8791C21.0974 38.3284 21.1372 38.7965 21.3085 39.223C21.4798 39.6496 21.7747 40.0151 22.1554 40.2727C22.5361 40.5304 22.9851 40.6682 23.4447 40.6686C23.7448 40.6898 24.0459 40.648 24.3287 40.5457C24.6116 40.4434 24.8699 40.2831 25.087 40.0749C25.304 39.8667 25.4751 39.6153 25.5891 39.337C25.7031 39.0587 25.7575 38.7596 25.7488 38.4589Z" fill="white" fill-opacity="0.8"/>
        <path d="M30.1682 38.6479C30.1663 37.6502 30.4605 36.6743 31.0134 35.8438C31.5664 35.0133 32.3533 34.3655 33.2745 33.9824C34.1957 33.5993 35.2099 33.4981 36.1887 33.6916C37.1675 33.8851 38.0669 34.3646 38.7731 35.0695C39.4792 35.7743 39.9604 36.6728 40.1558 37.6512C40.3511 38.6296 40.2518 39.644 39.8704 40.566C39.489 41.4879 38.8427 42.276 38.0133 42.8305C37.1838 43.3851 36.2085 43.681 35.2108 43.681C34.5473 43.6886 33.8889 43.5637 33.2743 43.3135C32.6597 43.0634 32.1012 42.6931 31.6316 42.2243C31.162 41.7556 30.7906 41.1978 30.5393 40.5836C30.288 39.9695 30.1618 39.3114 30.1682 38.6479ZM37.4016 38.6479C37.3904 38.2172 37.2525 37.7993 37.0051 37.4466C36.7577 37.0938 36.4118 36.8219 36.0106 36.6647C35.6095 36.5075 35.1709 36.4722 34.7497 36.563C34.3285 36.6538 33.9435 36.8668 33.6427 37.1753C33.342 37.4838 33.1389 37.8742 33.0588 38.2976C32.9788 38.7209 33.0254 39.1585 33.1927 39.5555C33.3601 39.9525 33.6408 40.2914 33.9997 40.5297C34.3587 40.768 34.7799 40.8952 35.2108 40.8953C35.504 40.9009 35.7952 40.8461 36.0663 40.7341C36.3373 40.6221 36.5824 40.4555 36.7862 40.2446C36.99 40.0338 37.1481 39.7831 37.2508 39.5084C37.3534 39.2337 37.3983 38.9407 37.3827 38.6479H37.4016Z" fill="white" fill-opacity="0.8"/>
        <path d="M41.5659 31.339C41.5659 30.9991 41.6667 30.6668 41.8555 30.3842C42.0444 30.1016 42.3128 29.8813 42.6268 29.7512C42.9409 29.6211 43.2864 29.5871 43.6198 29.6534C43.9532 29.7197 44.2594 29.8834 44.4998 30.1237C44.7402 30.3641 44.9038 30.6703 44.9701 31.0037C45.0365 31.3371 45.0024 31.6827 44.8724 31.9967C44.7423 32.3107 44.522 32.5792 44.2394 32.768C43.9567 32.9568 43.6245 33.0576 43.2845 33.0576C42.8295 33.0552 42.3938 32.8733 42.072 32.5515C41.7502 32.2298 41.5684 31.7941 41.5659 31.339ZM41.8586 33.8886H44.6915V43.4072H41.8586V33.8886Z" fill="white" fill-opacity="0.8"/>
        <path d="M57.0429 38.648C57.0772 39.2772 56.9868 39.907 56.7768 40.5011C56.5667 41.0952 56.2413 41.6419 55.8191 42.1097C55.3969 42.5775 54.8864 42.9572 54.3169 43.2269C53.7474 43.4966 53.1302 43.651 52.5008 43.6812C51.9724 43.7065 51.4448 43.6157 50.9554 43.415C50.4659 43.2143 50.0264 42.9087 49.6679 42.5197V47.2412H46.835V33.8887H49.6679V34.7858C50.0264 34.3968 50.4659 34.0912 50.9554 33.8905C51.4448 33.6898 51.9724 33.599 52.5008 33.6243C53.1294 33.6545 53.7458 33.8086 54.3146 34.0777C54.8835 34.3469 55.3936 34.7257 55.8156 35.1925C56.2377 35.6593 56.5633 36.2048 56.7739 36.7978C56.9846 37.3908 57.076 38.0196 57.0429 38.648ZM54.21 38.648C54.1988 38.2048 54.0578 37.7746 53.8045 37.4107C53.5512 37.0469 53.1968 36.7652 52.7851 36.6008C52.3734 36.4363 51.9224 36.3962 51.4882 36.4855C51.0539 36.5747 50.6553 36.7894 50.3418 37.1029C50.0283 37.4164 49.8137 37.8149 49.7244 38.2492C49.6352 38.6835 49.6753 39.1344 49.8397 39.5461C50.0042 39.9578 50.2858 40.3123 50.6497 40.5655C51.0136 40.8188 51.4438 40.9598 51.887 40.971C52.1963 40.9907 52.5062 40.9439 52.796 40.8339C53.0857 40.7238 53.3485 40.553 53.5668 40.333C53.785 40.1129 53.9537 39.8487 54.0614 39.5581C54.169 39.2675 54.2133 38.9572 54.1911 38.648H54.21Z" fill="white" fill-opacity="0.8"/>
        <path d="M65.863 40.5554C65.863 42.7462 63.9744 43.681 61.8969 43.681C61.067 43.7545 60.2341 43.5779 59.5054 43.174C58.7768 42.7701 58.1856 42.1574 57.8081 41.4147L60.2822 40.0077C60.3826 40.3512 60.5976 40.65 60.8913 40.8544C61.1851 41.0588 61.5399 41.1566 61.8969 41.1314C62.5863 41.1314 62.9262 40.9142 62.9262 40.5365C62.9262 39.4883 58.2047 40.0455 58.2047 36.7593C58.2047 34.6818 59.9611 33.6336 61.9819 33.6336C62.7276 33.611 63.4658 33.7881 64.12 34.1468C64.7742 34.5054 65.3205 35.0325 65.7025 35.6733L63.219 36.9765C63.1093 36.7271 62.9295 36.5149 62.7015 36.3657C62.4735 36.2165 62.2072 36.1367 61.9347 36.136C61.4437 36.136 61.1415 36.3249 61.1415 36.6743C61.1793 37.7602 65.863 37.0331 65.863 40.5554Z" fill="white" fill-opacity="0.8"/>
        <path d="M76.2879 33.8885V43.4072H73.4549V42.5196C73.1254 42.9139 72.7072 43.2248 72.2345 43.4267C71.7619 43.6286 71.2481 43.7156 70.7353 43.681C68.8467 43.681 67.1753 42.3117 67.1753 39.7338V33.8885H70.0082V39.3184C69.9833 39.5498 70.0103 39.7838 70.0871 40.0035C70.1639 40.2232 70.2886 40.423 70.4523 40.5885C70.6159 40.754 70.8144 40.8808 71.0332 40.96C71.252 41.0393 71.4858 41.0688 71.7174 41.0465C72.7562 41.0465 73.4833 40.4421 73.4833 39.0918V33.8885H76.2879Z" fill="white" fill-opacity="0.8"/>
        <path d="M92.6625 37.5713V43.4071H89.8295V37.8169C89.8295 36.8726 89.3668 36.2493 88.4603 36.2493C87.5538 36.2493 86.9683 36.9198 86.9683 38.0435V43.4071H84.1354V37.8169C84.1354 36.8726 83.6821 36.2493 82.7661 36.2493C81.8502 36.2493 81.2836 36.9198 81.2836 38.0435V43.4071H78.4507V33.8886H81.2836V34.7668C81.5797 34.3789 81.968 34.0712 82.4133 33.8717C82.8586 33.6721 83.3467 33.587 83.8332 33.6242C84.3218 33.6004 84.8083 33.7037 85.2451 33.9237C85.682 34.1438 86.0544 34.4733 86.3262 34.8801C86.6422 34.4548 87.0609 34.1165 87.5431 33.8969C88.0253 33.6773 88.5553 33.5834 89.0835 33.6242C91.2366 33.6242 92.6625 35.1917 92.6625 37.5713Z" fill="white" fill-opacity="0.8"/>
        <path d="M95.0797 33.8319C96.2479 33.8319 97.1949 32.8848 97.1949 31.7166C97.1949 30.5484 96.2479 29.6014 95.0797 29.6014C93.9115 29.6014 92.9644 30.5484 92.9644 31.7166C92.9644 32.8848 93.9115 33.8319 95.0797 33.8319Z" fill="white" fill-opacity="0.8"/>
        <path d="M34.6441 22.3115C40.1149 22.3115 44.5498 17.8765 44.5498 12.4057C44.5498 6.93496 40.1149 2.5 34.6441 2.5C29.1733 2.5 24.7383 6.93496 24.7383 12.4057C24.7383 17.8765 29.1733 22.3115 34.6441 22.3115Z" fill="white" fill-opacity="0.8"/>
        <path d="M56.7881 22.3115C62.2589 22.3115 66.6938 17.8765 66.6938 12.4057C66.6938 6.93496 62.2589 2.5 56.7881 2.5C51.3173 2.5 46.8823 6.93496 46.8823 12.4057C46.8823 17.8765 51.3173 22.3115 56.7881 22.3115Z" fill="white" fill-opacity="0.8"/>
        <path d="M22.406 2.5H2.604V22.302H22.406V2.5Z" fill="white" fill-opacity="0.8"/>
    </symbol>

    <symbol id="logo-three" width="119" height="30" viewBox="0 0 119 30" fill="none" xmlns="http://www.w3.org/2000/svg">
        <path d="M2.94092 27.8251H28.5909V2.17505H2.94092V27.8251ZM23.6539 12.532H18.2339V7.11205H23.6539V12.532ZM7.87692 7.11205H13.2999V17.468H23.6539V22.8881H7.87692V7.11205ZM45.2939 2.17505C42.7573 2.17505 40.2777 2.92723 38.1687 4.33646C36.0596 5.74569 34.4158 7.74868 33.4451 10.0921C32.4744 12.4356 32.2205 15.0142 32.7153 17.502C33.2102 19.9898 34.4316 22.275 36.2252 24.0686C38.0188 25.8623 40.304 27.0837 42.7918 27.5786C45.2797 28.0735 47.8583 27.8195 50.2018 26.8489C52.5453 25.8782 54.5482 24.2344 55.9575 22.1252C57.3667 20.0161 58.1189 17.5365 58.1189 15C58.1149 11.5998 56.7624 8.34009 54.3581 5.9358C51.9538 3.5315 48.6941 2.17902 45.2939 2.17505ZM45.2939 22.8881C43.7338 22.8881 42.2087 22.4254 40.9115 21.5586C39.6144 20.6919 38.6033 19.46 38.0063 18.0186C37.4093 16.5773 37.2531 14.9913 37.5574 13.4611C37.8618 11.931 38.6131 10.5255 39.7162 9.42239C40.8194 8.31924 42.2249 7.56798 43.755 7.26362C45.2851 6.95926 46.8711 7.11547 48.3125 7.71249C49.7538 8.30951 50.9858 9.32054 51.8525 10.6177C52.7193 11.9148 53.1819 13.4399 53.1819 15C53.1787 17.0911 52.3466 19.0956 50.868 20.5742C49.3894 22.0528 47.3849 22.8848 45.2939 22.8881ZM104.013 2.17505C101.476 2.17486 98.9966 2.92686 96.8874 4.33597C94.7782 5.74508 93.1343 7.748 92.1634 10.0914C91.1926 12.4348 90.9384 15.0136 91.4332 17.5014C91.9279 19.9893 93.1493 22.2747 94.9429 24.0683C96.7364 25.862 99.0216 27.0837 101.51 27.5786C103.997 28.0735 106.576 27.8195 108.92 26.8489C111.263 25.8783 113.266 24.2344 114.675 22.1253C116.085 20.0162 116.837 17.5366 116.837 15C116.833 11.6 115.481 8.34041 113.077 5.93615C110.673 3.53188 107.413 2.17929 104.013 2.17505ZM104.013 22.8881C102.453 22.8883 100.928 22.4257 99.6303 21.5591C98.333 20.6925 97.3218 19.4606 96.7246 18.0193C96.1274 16.578 95.9711 14.9919 96.2753 13.4617C96.5796 11.9316 97.3308 10.526 98.4339 9.42275C99.537 8.31949 100.943 7.56813 102.473 7.26369C104.003 6.95925 105.589 7.1154 107.03 7.7124C108.472 8.30939 109.704 9.32041 110.571 10.6176C111.437 11.9148 111.9 13.4399 111.9 15C111.897 17.0909 111.065 19.0952 109.586 20.5738C108.108 22.0524 106.104 22.8846 104.013 22.8881ZM74.6529 2.17505C72.1163 2.17505 69.6367 2.92723 67.5277 4.33646C65.4186 5.74569 63.7748 7.74868 62.8041 10.0921C61.8334 12.4356 61.5795 15.0142 62.0743 17.502C62.5692 19.9898 63.7906 22.275 65.5842 24.0686C67.3778 25.8623 69.663 27.0837 72.1508 27.5786C74.6386 28.0735 77.2173 27.8195 79.5608 26.8489C81.9043 25.8782 83.9072 24.2344 85.3165 22.1252C86.7257 20.0161 87.4779 17.5365 87.4779 15C87.4739 11.5998 86.1214 8.34009 83.7171 5.9358C81.3128 3.5315 78.0531 2.17902 74.6529 2.17505ZM74.6529 22.8881C73.1993 22.8888 71.7739 22.4879 70.5338 21.7295C69.2938 20.9712 68.2873 19.8852 67.6256 18.591C66.964 17.2968 66.6727 15.8448 66.7841 14.3956C66.8955 12.9463 67.4051 11.556 68.2568 10.3781C69.1085 9.20031 70.2691 8.28066 71.6104 7.72076C72.9518 7.16085 74.4218 6.98247 75.8581 7.20529C77.2945 7.42812 78.6413 8.04348 79.75 8.98347C80.8587 9.92345 81.6861 11.1515 82.1409 12.532H74.6529V17.468H82.1409C81.62 19.0433 80.6164 20.4148 79.2723 21.3876C77.9283 22.3605 76.3121 22.8853 74.6529 22.8881Z" fill="white" fill-opacity="0.8"/>
    </symbol>

    <symbol id="logo-four" width="100" height="51" viewBox="0 0 100 51" fill="none" xmlns="http://www.w3.org/2000/svg">
        <path d="M2.58496 29.5165H5.41788V43.4072H2.58496V29.5165Z" fill="white" fill-opacity="0.8"/>
        <path d="M7.06126 38.6479C7.05939 37.6502 7.35354 36.6743 7.90649 35.8438C8.45944 35.0133 9.24633 34.3655 10.1676 33.9824C11.0888 33.5993 12.103 33.4981 13.0818 33.6916C14.0606 33.8851 14.96 34.3646 15.6661 35.0695C16.3723 35.7743 16.8535 36.6728 17.0488 37.6512C17.2442 38.6296 17.1449 39.644 16.7635 40.566C16.3821 41.4879 15.7358 42.276 14.9063 42.8305C14.0769 43.3851 13.1016 43.681 12.1039 43.681C11.4403 43.6886 10.782 43.5637 10.1674 43.3135C9.55281 43.0634 8.99432 42.6931 8.52468 42.2243C8.05504 41.7556 7.68369 41.1978 7.4324 40.5836C7.18111 39.9695 7.05493 39.3114 7.06126 38.6479ZM14.2946 38.6479C14.2835 38.2172 14.1456 37.7993 13.8982 37.4466C13.6508 37.0938 13.3049 36.8219 12.9037 36.6647C12.5025 36.5075 12.0639 36.4722 11.6428 36.563C11.2216 36.6538 10.8366 36.8668 10.5358 37.1753C10.2351 37.4838 10.032 37.8742 9.95193 38.2976C9.87188 38.7209 9.91846 39.1585 10.0858 39.5555C10.2532 39.9525 10.5339 40.2914 10.8928 40.5297C11.2518 40.768 11.673 40.8952 12.1039 40.8953C12.3986 40.9036 12.6919 40.8507 12.9652 40.7399C13.2385 40.6291 13.4859 40.4629 13.6918 40.2517C13.8976 40.0405 14.0575 39.789 14.1612 39.513C14.265 39.2369 14.3104 38.9424 14.2946 38.6479Z" fill="white" fill-opacity="0.8"/>
        <path d="M28.5345 33.8885V42.9349C28.5345 46.1361 26.0321 47.4865 23.5014 47.4865C22.6115 47.5527 21.7205 47.3727 20.926 46.9663C20.1315 46.5599 19.4642 45.9427 18.9971 45.1824L21.4334 43.7754C21.6267 44.165 21.9326 44.4877 22.3114 44.7015C22.6902 44.9153 23.1245 45.0105 23.5581 44.9746C23.8433 45.0222 24.1357 45.0036 24.4127 44.9202C24.6897 44.8369 24.9438 44.6911 25.1555 44.494C25.3671 44.2969 25.5307 44.0538 25.6336 43.7835C25.7365 43.5132 25.7759 43.2229 25.7488 42.9349V42.0567C25.4158 42.4665 24.9908 42.792 24.5085 43.0069C24.0262 43.2218 23.5 43.3201 22.9726 43.2938C21.6903 43.2938 20.4606 42.7844 19.5538 41.8777C18.6471 40.971 18.1377 39.7412 18.1377 38.4589C18.1377 37.1766 18.6471 35.9469 19.5538 35.0402C20.4606 34.1335 21.6903 33.6241 22.9726 33.6241C23.4997 33.6 24.0251 33.6993 24.5071 33.914C24.9891 34.1288 25.4143 34.4531 25.7488 34.8611V33.9168L28.5345 33.8885ZM25.7488 38.4589C25.7677 37.9997 25.6487 37.5453 25.4073 37.1541C25.1658 36.763 24.8129 36.453 24.3939 36.2641C23.9749 36.0751 23.5089 36.0158 23.0559 36.0938C22.6029 36.1717 22.1836 36.3834 21.8519 36.7015C21.5201 37.0197 21.2911 37.4298 21.1943 37.8791C21.0974 38.3284 21.1372 38.7965 21.3085 39.223C21.4798 39.6496 21.7747 40.0151 22.1554 40.2727C22.5361 40.5304 22.9851 40.6682 23.4447 40.6686C23.7448 40.6898 24.0459 40.648 24.3287 40.5457C24.6116 40.4434 24.8699 40.2831 25.087 40.0749C25.304 39.8667 25.4751 39.6153 25.5891 39.337C25.7031 39.0587 25.7575 38.7596 25.7488 38.4589Z" fill="white" fill-opacity="0.8"/>
        <path d="M30.1682 38.6479C30.1663 37.6502 30.4605 36.6743 31.0134 35.8438C31.5664 35.0133 32.3533 34.3655 33.2745 33.9824C34.1957 33.5993 35.2099 33.4981 36.1887 33.6916C37.1675 33.8851 38.0669 34.3646 38.7731 35.0695C39.4792 35.7743 39.9604 36.6728 40.1558 37.6512C40.3511 38.6296 40.2518 39.644 39.8704 40.566C39.489 41.4879 38.8427 42.276 38.0133 42.8305C37.1838 43.3851 36.2085 43.681 35.2108 43.681C34.5473 43.6886 33.8889 43.5637 33.2743 43.3135C32.6597 43.0634 32.1012 42.6931 31.6316 42.2243C31.162 41.7556 30.7906 41.1978 30.5393 40.5836C30.288 39.9695 30.1618 39.3114 30.1682 38.6479ZM37.4016 38.6479C37.3904 38.2172 37.2525 37.7993 37.0051 37.4466C36.7577 37.0938 36.4118 36.8219 36.0106 36.6647C35.6095 36.5075 35.1709 36.4722 34.7497 36.563C34.3285 36.6538 33.9435 36.8668 33.6427 37.1753C33.342 37.4838 33.1389 37.8742 33.0588 38.2976C32.9788 38.7209 33.0254 39.1585 33.1927 39.5555C33.3601 39.9525 33.6408 40.2914 33.9997 40.5297C34.3587 40.768 34.7799 40.8952 35.2108 40.8953C35.504 40.9009 35.7952 40.8461 36.0663 40.7341C36.3373 40.6221 36.5824 40.4555 36.7862 40.2446C36.99 40.0338 37.1481 39.7831 37.2508 39.5084C37.3534 39.2337 37.3983 38.9407 37.3827 38.6479H37.4016Z" fill="white" fill-opacity="0.8"/>
        <path d="M41.5659 31.339C41.5659 30.9991 41.6667 30.6668 41.8555 30.3842C42.0444 30.1016 42.3128 29.8813 42.6268 29.7512C42.9409 29.6211 43.2864 29.5871 43.6198 29.6534C43.9532 29.7197 44.2594 29.8834 44.4998 30.1237C44.7402 30.3641 44.9038 30.6703 44.9701 31.0037C45.0365 31.3371 45.0024 31.6827 44.8724 31.9967C44.7423 32.3107 44.522 32.5792 44.2394 32.768C43.9567 32.9568 43.6245 33.0576 43.2845 33.0576C42.8295 33.0552 42.3938 32.8733 42.072 32.5515C41.7502 32.2298 41.5684 31.7941 41.5659 31.339ZM41.8586 33.8886H44.6915V43.4072H41.8586V33.8886Z" fill="white" fill-opacity="0.8"/>
        <path d="M57.0429 38.648C57.0772 39.2772 56.9868 39.907 56.7768 40.5011C56.5667 41.0952 56.2413 41.6419 55.8191 42.1097C55.3969 42.5775 54.8864 42.9572 54.3169 43.2269C53.7474 43.4966 53.1302 43.651 52.5008 43.6812C51.9724 43.7065 51.4448 43.6157 50.9554 43.415C50.4659 43.2143 50.0264 42.9087 49.6679 42.5197V47.2412H46.835V33.8887H49.6679V34.7858C50.0264 34.3968 50.4659 34.0912 50.9554 33.8905C51.4448 33.6898 51.9724 33.599 52.5008 33.6243C53.1294 33.6545 53.7458 33.8086 54.3146 34.0777C54.8835 34.3469 55.3936 34.7257 55.8156 35.1925C56.2377 35.6593 56.5633 36.2048 56.7739 36.7978C56.9846 37.3908 57.076 38.0196 57.0429 38.648ZM54.21 38.648C54.1988 38.2048 54.0578 37.7746 53.8045 37.4107C53.5512 37.0469 53.1968 36.7652 52.7851 36.6008C52.3734 36.4363 51.9224 36.3962 51.4882 36.4855C51.0539 36.5747 50.6553 36.7894 50.3418 37.1029C50.0283 37.4164 49.8137 37.8149 49.7244 38.2492C49.6352 38.6835 49.6753 39.1344 49.8397 39.5461C50.0042 39.9578 50.2858 40.3123 50.6497 40.5655C51.0136 40.8188 51.4438 40.9598 51.887 40.971C52.1963 40.9907 52.5062 40.9439 52.796 40.8339C53.0857 40.7238 53.3485 40.553 53.5668 40.333C53.785 40.1129 53.9537 39.8487 54.0614 39.5581C54.169 39.2675 54.2133 38.9572 54.1911 38.648H54.21Z" fill="white" fill-opacity="0.8"/>
        <path d="M65.863 40.5554C65.863 42.7462 63.9744 43.681 61.8969 43.681C61.067 43.7545 60.2341 43.5779 59.5054 43.174C58.7768 42.7701 58.1856 42.1574 57.8081 41.4147L60.2822 40.0077C60.3826 40.3512 60.5976 40.65 60.8913 40.8544C61.1851 41.0588 61.5399 41.1566 61.8969 41.1314C62.5863 41.1314 62.9262 40.9142 62.9262 40.5365C62.9262 39.4883 58.2047 40.0455 58.2047 36.7593C58.2047 34.6818 59.9611 33.6336 61.9819 33.6336C62.7276 33.611 63.4658 33.7881 64.12 34.1468C64.7742 34.5054 65.3205 35.0325 65.7025 35.6733L63.219 36.9765C63.1093 36.7271 62.9295 36.5149 62.7015 36.3657C62.4735 36.2165 62.2072 36.1367 61.9347 36.136C61.4437 36.136 61.1415 36.3249 61.1415 36.6743C61.1793 37.7602 65.863 37.0331 65.863 40.5554Z" fill="white" fill-opacity="0.8"/>
        <path d="M76.2879 33.8885V43.4072H73.4549V42.5196C73.1254 42.9139 72.7072 43.2248 72.2345 43.4267C71.7619 43.6286 71.2481 43.7156 70.7353 43.681C68.8467 43.681 67.1753 42.3117 67.1753 39.7338V33.8885H70.0082V39.3184C69.9833 39.5498 70.0103 39.7838 70.0871 40.0035C70.1639 40.2232 70.2886 40.423 70.4523 40.5885C70.6159 40.754 70.8144 40.8808 71.0332 40.96C71.252 41.0393 71.4858 41.0688 71.7174 41.0465C72.7562 41.0465 73.4833 40.4421 73.4833 39.0918V33.8885H76.2879Z" fill="white" fill-opacity="0.8"/>
        <path d="M92.6625 37.5713V43.4071H89.8295V37.8169C89.8295 36.8726 89.3668 36.2493 88.4603 36.2493C87.5538 36.2493 86.9683 36.9198 86.9683 38.0435V43.4071H84.1354V37.8169C84.1354 36.8726 83.6821 36.2493 82.7661 36.2493C81.8502 36.2493 81.2836 36.9198 81.2836 38.0435V43.4071H78.4507V33.8886H81.2836V34.7668C81.5797 34.3789 81.968 34.0712 82.4133 33.8717C82.8586 33.6721 83.3467 33.587 83.8332 33.6242C84.3218 33.6004 84.8083 33.7037 85.2451 33.9237C85.682 34.1438 86.0544 34.4733 86.3262 34.8801C86.6422 34.4548 87.0609 34.1165 87.5431 33.8969C88.0253 33.6773 88.5553 33.5834 89.0835 33.6242C91.2366 33.6242 92.6625 35.1917 92.6625 37.5713Z" fill="white" fill-opacity="0.8"/>
        <path d="M95.0797 33.8319C96.2479 33.8319 97.1949 32.8848 97.1949 31.7166C97.1949 30.5484 96.2479 29.6014 95.0797 29.6014C93.9115 29.6014 92.9644 30.5484 92.9644 31.7166C92.9644 32.8848 93.9115 33.8319 95.0797 33.8319Z" fill="white" fill-opacity="0.8"/>
        <path d="M34.6441 22.3115C40.1149 22.3115 44.5498 17.8765 44.5498 12.4057C44.5498 6.93496 40.1149 2.5 34.6441 2.5C29.1733 2.5 24.7383 6.93496 24.7383 12.4057C24.7383 17.8765 29.1733 22.3115 34.6441 22.3115Z" fill="white" fill-opacity="0.8"/>
        <path d="M56.7881 22.3115C62.2589 22.3115 66.6938 17.8765 66.6938 12.4057C66.6938 6.93496 62.2589 2.5 56.7881 2.5C51.3173 2.5 46.8823 6.93496 46.8823 12.4057C46.8823 17.8765 51.3173 22.3115 56.7881 22.3115Z" fill="white" fill-opacity="0.8"/>
        <path d="M22.406 2.5H2.604V22.302H22.406V2.5Z" fill="white" fill-opacity="0.8"/>
    </symbol>

</svg>

