<svg xmlns="http://www.w3.org/2000/svg">

    <symbol id="logo" width="36" height="36" viewBox="0 0 36 36" fill="none">
        <path d="M0.5 33H35.5V35.5H0.5V33ZM31.75 11.75C32.0815 11.75 32.3995 11.6183 32.6339 11.3839C32.8683 11.1495 33 10.8315 33 10.5V6.74999C32.9999 6.49309 32.9206 6.24248 32.773 6.03223C32.6254 5.82199 32.4166 5.66233 32.175 5.57499L18.425 0.574987C18.1504 0.475696 17.8496 0.475696 17.575 0.574987L3.825 5.57499C3.58341 5.66233 3.3746 5.82199 3.22698 6.03223C3.07937 6.24248 3.00011 6.49309 3 6.74999V10.5C3 10.8315 3.1317 11.1495 3.36612 11.3839C3.60054 11.6183 3.91848 11.75 4.25 11.75H5.5V28H3V30.5H33V28H30.5V11.75H31.75ZM5.5 7.62499L18 3.07499L30.5 7.62499V9.24999H5.5V7.62499ZM20.5 28H15.5V11.75H20.5V28ZM8 11.75H13V28H8V11.75ZM28 28H23V11.75H28V28Z" fill="#F8F8F8"/>
    </symbol>

    <symbol id="burger-menu" width="44" height="17" viewBox="0 0 44 17" fill="none">
        <rect width="44" height="3" fill="white"/>
        <rect y="7" width="44" height="3" fill="white"/>
        <rect y="14" width="44" height="3" fill="white"/>
    </symbol>

    <symbol id="mastercard-logo" viewBox="0 0 88 69" fill="none">
        <path d="M32.2396 6.22971H55.7867V47.83H32.2396V6.22971Z" fill="#FF5F00"/>
        <path d="M16.3177 68.7689V64.3592C16.3177 62.6684 15.2709 61.5662 13.4767 61.5662C12.5798 61.5662 11.608 61.8602 10.9351 62.8157C10.412 62.0071 9.66459 61.5662 8.54325 61.5662C7.79546 61.5662 7.04836 61.7865 6.45006 62.5951V61.7132H4.88025V68.7689H6.45006V64.8734C6.45006 63.6243 7.12293 63.036 8.1697 63.036C9.21578 63.036 9.7395 63.6976 9.7395 64.8734V68.7689H11.3093V64.8734C11.3093 63.6243 12.0564 63.036 13.0283 63.036C14.075 63.036 14.5981 63.6976 14.5981 64.8734V68.7689H16.3177ZM39.5655 61.7132H37.0242V59.5818H35.4544V61.7132H34.0341V63.1093H35.4541V66.3436C35.4541 67.9607 36.1269 68.9159 37.9211 68.9159C38.594 68.9159 39.3411 68.6956 39.8648 68.4017L39.416 67.0785C38.9676 67.3725 38.4445 67.4461 38.0706 67.4461C37.3232 67.4461 37.0242 67.0052 37.0242 66.2699V63.1093H39.5655V61.7132ZM52.8718 61.5659C51.9748 61.5659 51.3769 62.0071 51.003 62.5951V61.7132H49.4332V68.7689H51.003V64.8001C51.003 63.6243 51.526 62.9627 52.4979 62.9627C52.7969 62.9627 53.1708 63.0363 53.4697 63.1097L53.9182 61.6399C53.6192 61.5662 53.1708 61.5662 52.8718 61.5662V61.5659ZM32.7632 62.3011C32.0155 61.7865 30.969 61.5662 29.8477 61.5662C28.0538 61.5662 26.8579 62.4481 26.8579 63.8446C26.8579 65.0208 27.7548 65.682 29.3247 65.9026L30.0721 65.9763C30.8945 66.1229 31.3429 66.3436 31.3429 66.7112C31.3429 67.2255 30.745 67.5931 29.6982 67.5931C28.6518 67.5931 27.8294 67.2255 27.306 66.8582L26.5586 68.034C27.3809 68.622 28.5023 68.9159 29.6233 68.9159C31.7165 68.9159 32.9127 67.9607 32.9127 66.6375C32.9127 65.388 31.9409 64.7265 30.4456 64.5062L29.6982 64.4325C29.0253 64.3588 28.5023 64.2122 28.5023 63.7713C28.5023 63.2567 29.0253 62.9627 29.8477 62.9627C30.745 62.9627 31.6419 63.33 32.0904 63.5506L32.7632 62.3011ZM74.4755 61.5662C73.5783 61.5662 72.9803 62.0071 72.6064 62.5951V61.7132H71.0366V68.7689H72.6064V64.8001C72.6064 63.6243 73.1298 62.9627 74.1013 62.9627C74.4006 62.9627 74.7745 63.0363 75.0735 63.1097L75.522 61.6399C75.223 61.5662 74.7745 61.5662 74.4755 61.5662ZM54.4416 65.2411C54.4416 67.3725 55.9365 68.9159 58.2541 68.9159C59.3005 68.9159 60.0479 68.6956 60.7954 68.1077L60.0479 66.8582C59.45 67.2991 58.852 67.5194 58.1792 67.5194C56.9083 67.5194 56.0114 66.6375 56.0114 65.2411C56.0114 63.9182 56.9083 63.036 58.1792 62.9627C58.852 62.9627 59.45 63.183 60.0479 63.6243L60.7954 62.3748C60.0479 61.7865 59.3005 61.5662 58.2541 61.5662C55.9365 61.5662 54.4416 63.1097 54.4416 65.2411ZM68.9438 65.2411V61.7132H67.3739V62.5951C66.8506 61.9338 66.1031 61.5662 65.1313 61.5662C63.113 61.5662 61.5432 63.1097 61.5432 65.2411C61.5432 67.3725 63.113 68.9159 65.1313 68.9159C66.1777 68.9159 66.9255 68.5486 67.3739 67.8871V68.7689H68.9438V65.2411ZM63.1876 65.2411C63.1876 63.9916 64.0099 62.9627 65.3553 62.9627C66.6262 62.9627 67.5234 63.9182 67.5234 65.2411C67.5234 66.4906 66.6262 67.5194 65.3553 67.5194C64.0099 67.4458 63.1876 66.4906 63.1876 65.2411ZM44.4248 61.5662C42.3316 61.5662 40.8364 63.036 40.8364 65.2411C40.8364 67.4461 42.3312 68.9159 44.4994 68.9159C45.5458 68.9159 46.5925 68.622 47.4149 67.9607L46.6671 66.8582C46.0692 67.2991 45.3217 67.5931 44.5743 67.5931C43.6024 67.5931 42.6306 67.1522 42.4062 65.9023H47.7139V65.3147C47.7888 63.036 46.4431 61.5662 44.4244 61.5662H44.4248ZM44.4248 62.889C45.3963 62.889 46.0695 63.4773 46.2187 64.5798H42.4811C42.6306 63.6243 43.3034 62.889 44.4248 62.889ZM83.371 65.2411V58.9202H81.8012V62.5951C81.2778 61.9338 80.5304 61.5662 79.5585 61.5662C77.5402 61.5662 75.9704 63.1097 75.9704 65.2411C75.9704 67.3725 77.5402 68.9159 79.5585 68.9159C80.6053 68.9159 81.3527 68.5486 81.8012 67.8871V68.7689H83.371V65.2411ZM77.6152 65.2411C77.6152 63.9916 78.4372 62.9627 79.7829 62.9627C81.0537 62.9627 81.9507 63.9182 81.9507 65.2411C81.9507 66.4906 81.0537 67.5194 79.7829 67.5194C78.4372 67.4458 77.6152 66.4906 77.6152 65.2411ZM25.1383 65.2411V61.7132H23.5685V62.5951C23.0451 61.9338 22.2976 61.5662 21.3258 61.5662C19.3075 61.5662 17.7377 63.1097 17.7377 65.2411C17.7377 67.3725 19.3075 68.9159 21.3258 68.9159C22.3725 68.9159 23.12 68.5486 23.5685 67.8871V68.7689H25.1383V65.2411ZM19.3075 65.2411C19.3075 63.9916 20.1299 62.9627 21.4753 62.9627C22.7461 62.9627 23.6434 63.9182 23.6434 65.2411C23.6434 66.4906 22.7461 67.5194 21.4753 67.5194C20.1299 67.4458 19.3075 66.4906 19.3075 65.2411Z" fill="white"/>
        <path d="M33.7344 27.0299C33.7344 18.5777 37.771 11.0807 43.9753 6.22963C39.4157 2.70175 33.6598 0.570358 27.3806 0.570358C12.5042 0.570358 0.469116 12.4035 0.469116 27.0299C0.469116 41.6561 12.5042 53.4895 27.3803 53.4895C33.6595 53.4895 39.4153 51.3581 43.9753 47.8299C37.771 43.0525 33.7344 35.4822 33.7344 27.0299Z" fill="#EB001B"/>
        <path d="M87.556 27.03C87.556 41.6561 75.5209 53.4896 60.6448 53.4896C54.3656 53.4896 48.6097 51.3582 44.0498 47.83C50.329 42.9792 54.291 35.4822 54.291 27.03C54.291 18.5777 50.2541 11.0807 44.0498 6.22966C48.6094 2.70178 54.3656 0.570389 60.6448 0.570389C75.5209 0.570389 87.5563 12.4772 87.5563 27.03H87.556Z" fill="#F79E1B"/>
    </symbol>

</svg>

